inDegrees=no
num_controls=7
num_derivatives=13
num_iterations=190
num_multipliers=7
num_parameters=0
num_slacks=7
num_states=26
objective=0.448414
objective_accelerations=0.048791
objective_balance=0.007308
objective_effort=0.036089
objective_height=0.351287
objective_ligament=0.004939
solver_duration=2777.770698
status=Solve_Succeeded
success=true
DataType=double
version=3
OpenSimVersion=4.5
endheader
time	/jointset/ground_pelvis/pelvis_tilt/value	/jointset/ground_pelvis/pelvis_tx/value	/jointset/ground_pelvis/pelvis_ty/value	/jointset/hip_l/hip_flexion_l/value	/jointset/hip_l/hip_adduction_l/value	/jointset/hip_l/hip_rotation_l/value	/jointset/back/lumbar_extension/value	/jointset/patellofemoral_l/patellar_flexion_l/value	/jointset/knee_l/knee_flexion_l/value	/jointset/knee_l/knee_adduction_l/value	/jointset/knee_l/knee_rotation_l/value	/jointset/ankle_l/ankle_angle_l/value	/jointset/subtalar_l/subtalar_angle_l/value	/jointset/ground_pelvis/pelvis_tilt/speed	/jointset/ground_pelvis/pelvis_tx/speed	/jointset/ground_pelvis/pelvis_ty/speed	/jointset/hip_l/hip_flexion_l/speed	/jointset/hip_l/hip_adduction_l/speed	/jointset/hip_l/hip_rotation_l/speed	/jointset/back/lumbar_extension/speed	/jointset/patellofemoral_l/patellar_flexion_l/speed	/jointset/knee_l/knee_flexion_l/speed	/jointset/knee_l/knee_adduction_l/speed	/jointset/knee_l/knee_rotation_l/speed	/jointset/ankle_l/ankle_angle_l/speed	/jointset/subtalar_l/subtalar_angle_l/speed	/forceset/tau_hip_flexion_l	/forceset/tau_hip_adduction_l	/forceset/tau_hip_rotation_l	/forceset/tau_knee_flexion_l	/forceset/tau_ankle_angle_l	/forceset/tau_subtalar_angle_l	/forceset/tau_lumbar_extension	lambda_cid13_p0	lambda_cid13_p1	lambda_cid13_p2	lambda_cid13_p3	lambda_cid13_p4	lambda_cid13_p5	lambda_cid14_p0	/jointset/ground_pelvis/pelvis_tilt/accel	/jointset/ground_pelvis/pelvis_tx/accel	/jointset/ground_pelvis/pelvis_ty/accel	/jointset/hip_l/hip_flexion_l/accel	/jointset/hip_l/hip_adduction_l/accel	/jointset/hip_l/hip_rotation_l/accel	/jointset/back/lumbar_extension/accel	/jointset/patellofemoral_l/patellar_flexion_l/accel	/jointset/knee_l/knee_flexion_l/accel	/jointset/knee_l/knee_adduction_l/accel	/jointset/knee_l/knee_rotation_l/accel	/jointset/ankle_l/ankle_angle_l/accel	/jointset/subtalar_l/subtalar_angle_l/accel	gamma_cid13_p0	gamma_cid13_p1	gamma_cid13_p2	gamma_cid13_p3	gamma_cid13_p4	gamma_cid13_p5	gamma_cid14_p0
0	-0.1599471778474488	0.05849275302439044	0.8979913648453045	0.3774924667018715	-0.2592443823144139	-0.2711452553530238	-0.01265067647494873	0.03223648243721565	0.03223648243721463	-0.1745328818209266	0.172785822841786	-0.04231377076293093	-0.009389992516091081	0	0	0	0	0	0	0	0	0	0	0	0	0	0.1433486657894511	-0.07737192780234224	-0.04916419802649474	-0.2907709516359142	0.2849287561558666	-0.03888811906663066	-0.09001032142568063	49.41972945888027	1.969992678194252	6.44088172338471	1.596706913010886	-589.1665312486391	-73.01714839901406	-39.01924856301417	-4.136232584749172	-2.22748481826383	-1.102905687633744	12.3755115834687	-1.251250070853552	3.005170612187581	-5.820955943791683	8.984222234495425	8.984222234483752	0.05136214367301116	0.1027502170227015	0.8148499759875634	-1.09119061886436	-1.646692537826227e-08	1.105056244806173e-07	6.795021529714584e-08	-1.38724512386168e-08	1.184388516716775e-07	3.198543651197398e-08	-9.446849354450362e-09
0.01	-0.1601473621910548	0.05838352527458127	0.8979375204548745	0.3780954655542587	-0.2593065642818119	-0.2709956065631314	-0.01294201465255536	0.03267527525110562	0.03267527525110376	-0.1745321582035335	0.1727881641182767	-0.04227452013889789	-0.009444499900838364	-0.03986121593160355	-0.02166724511819027	-0.01072115817794083	0.1199612962801928	-0.01235771173772854	0.02978683512598235	-0.05780720498349741	0.08735116089003085	0.0873511608899991	0.000167994767979801	0.0004717802664754414	0.007917594660167298	-0.01080698040116976	0.1396704544259658	-0.08689473147703257	-0.04875473957642847	-0.2892319222218008	0.2831236999603791	-0.027916185493487	-0.08641645159198098	49.25395645983956	-2.486516358045882	6.832026310105981	0.05735126157965638	-590.612550902109	-81.86192136288712	-39.03193304690797	-3.884727260136862	-2.109601406636763	-1.049539208898066	11.71066070531226	-1.216250644481845	2.943994287506015	-5.691538194849766	8.549454622536748	8.549454622539065	0.003032520115281465	0.01991511361650494	0.7903346356926124	-1.061302486361126	-4.440353886604486e-08	1.148349589876478e-07	1.036200963133626e-07	1.137705569195279e-08	-3.09938318801193e-08	2.716521174592228e-08	-1.65450922454278e-08
0.02	-0.1607408909265345	0.05806297366398213	0.89777790081746	0.3798789217804481	-0.2594899671504365	-0.2705523785570365	-0.01379761196384236	0.0339753579951457	0.03397535799514536	-0.1745290517631062	0.1727953278338683	-0.04215406948333091	-0.009604247236720931	-0.07866887837402442	-0.04226477215799741	-0.0211550493968987	0.2360914747610973	-0.02424418024542912	0.05871584324006089	-0.1128518267358285	0.1722579860312532	0.1722579860312386	0.0004765646061504148	0.0009644878192126708	0.01624000630678499	-0.0210479902270539	0.1359922430624529	-0.09641753515172614	-0.0483452811263478	-0.287692892807723	0.2813186437648768	-0.01694425192035012	-0.08282258175828708	49.16430105237162	-6.956542145430674	7.225545339189714	-1.596083819465695	-590.8837016521876	-90.60422022582303	-39.06930617345244	-3.925521886912589	-2.013541202587238	-1.045452295837152	11.60928802361102	-1.157001424847981	2.833605209806814	-5.268439297558392	8.495355084733735	8.495355084731825	0.07947715771113374	0.1069356742750655	0.8958133732775965	-0.9779965038072662	-7.234015235382747e-08	1.191642934946783e-07	1.392899773295794e-07	3.662656262252238e-08	-1.804265154319161e-07	2.234498697987058e-08	-2.364333513640524e-08
0.03	-0.1617173446354499	0.05754110437546713	0.897515055881124	0.3828059132117252	-0.2597897687714273	-0.2698240101057617	-0.01519043073454357	0.03611279069130077	0.03611279069130091	-0.1745220918929464	0.1728075105159088	-0.04194908793954923	-0.009863659569458779	-0.1164221024392831	-0.06199750983193228	-0.03139240656077357	0.3487497506069133	-0.03563587999313635	0.08682692863253316	-0.165346257658794	0.2548488252229187	0.2548488252228417	0.0009237268859821169	0.001469615938779846	0.02474509088619859	-0.03075905589816893	0.1301920510565559	-0.0906354296213714	-0.04751502628542736	-0.2824497607019289	0.2764336589526091	-0.01931224193291053	-0.07804753557760929	47.53553883244131	-5.763284408500382	7.172768750682683	-1.270032767041757	-590.8181704926334	-87.27514412229894	-39.13008416314133	-3.67026634755481	-1.936396265592304	-1.00968441930631	11.01052668886043	-1.118235515928029	2.780203043600309	-5.185094527736092	8.083993897203445	8.083993897195391	0.02861450179954037	0.02191863162011624	0.8261699440883505	-0.9563824806605769	-9.152186712488844e-08	1.31112341016378e-07	1.642605994691374e-07	5.383573987763605e-08	-2.800153349157165e-07	2.714527049091663e-08	-2.820037675878516e-08
0.04	-0.1630653393212657	0.05682525646705355	0.8971504759746203	0.3868427732662171	-0.2602010836431344	-0.2688184622326358	-0.01709722372208962	0.03906474089153734	0.03906474089153665	-0.1745104046522473	0.1728246679293088	-0.04165939276121049	-0.01021792673528719	-0.1529770737534225	-0.08106049613771489	-0.04150204343044106	0.4580651994044698	-0.04654683038868155	0.1141517276103197	-0.2156466701045726	0.3351614868474033	0.3351614868472771	0.001422038713027604	0.001959434091250749	0.03318273321821567	-0.04001895684516232	0.1243918590506594	-0.08485332409101276	-0.04668477144451699	-0.2772066285961338	0.2715486741403426	-0.0216802319454667	-0.07327248939693208	45.9766679079337	-4.58051926283136	7.119674628614836	-1.057183993422386	-589.6924077889993	-83.84754143633913	-39.21291968498788	-3.685871336688677	-1.879590928956817	-1.019908236995676	10.9407226139591	-1.060851554415591	2.676347926869675	-4.829635602120989	8.039719571297576	8.039719571298262	0.0897070671538641	0.1038736808558168	0.8823249237982521	-0.8877635589829596	-1.105230685203469e-07	1.432174754043595e-07	1.89010618332888e-07	7.087913713944133e-08	-3.785764458620325e-07	3.214391499736675e-08	-3.270502247871977e-08
0.05	-0.164773154315213	0.05592199809079486	0.896685220760626	0.3919568429842403	-0.2607189555478254	-0.2675436065274194	-0.01949548858647563	0.04280884041004995	0.04280884041004941	-0.1744933287046755	0.1728467720393314	-0.04128567047146508	-0.01066241146909255	-0.1883686502362218	-0.09948939811426277	-0.05154206625858991	0.5641899433877567	-0.05693918514499081	0.1406908110531788	-0.2636280467988409	0.4132746768577095	0.4132746768576183	0.001995331290144649	0.002453913529833675	0.04153390990778064	-0.04880007773380902	0.1170998167270836	-0.08244401943430789	-0.0455044673742285	-0.2703493042642726	0.2631688988501176	-0.0194355216234371	-0.06748071727377275	43.46372158722554	-5.139353975814304	7.236130364576519	-0.1772531094941733	-588.681805595942	-83.78046388952313	-39.31604778107873	-3.433217148965285	-1.809258368571569	-0.9950858509935366	10.36451491883897	-1.015194465030127	2.623370883909787	-4.72565030694213	7.63956429372363	7.639564293728445	0.04150568213901451	0.02108811196552144	0.8073349428279483	-0.8616424407176309	-1.231442284431673e-07	1.569707064042177e-07	2.037605659672966e-07	8.319933609867071e-08	-4.436836652954532e-07	3.925384590706822e-08	-3.488122860491385e-08
0.06	-0.1668283683429682	0.05483750698745702	0.8961197580092961	0.3981153930677598	-0.2613381044058377	-0.2660072235215907	-0.02236221953857737	0.04732256094422958	0.0473225609442308	-0.1744704467654996	0.1728735915510619	-0.04082927223456559	-0.0111923786291668	-0.2224568805146003	-0.1173070415535432	-0.06154355089752755	0.6669612725040623	-0.06680222105296096	0.1664571877326678	-0.3093398876475986	0.4890856899810748	0.489085689981015	0.00258323703319639	0.00290251443265676	0.04971792264903809	-0.05711544209894034	0.1098077744035013	-0.08003471477760403	-0.04432416330393822	-0.2634919799324186	0.2547891235598896	-0.01719081130140918	-0.06168894515061511	41.01186032380875	-5.706439102753195	7.351110485651012	0.5993216207086445	-586.7363151377411	-83.62336487756977	-39.43759879797359	-3.425202095804466	-1.757339221503363	-1.012200599153435	10.27003964056283	-0.9549877847477796	2.521806574195667	-4.375728433018805	7.579284193909391	7.579284193909368	0.09262970034078744	0.09469797370385492	0.8488921341367104	-0.7946122542798996	-1.35496755040824e-07	1.707933309456284e-07	2.180894579709962e-07	9.532066355042319e-08	-5.073822998230677e-07	4.645267308638028e-08	-3.69593951692662e-08
0.07000000000000001	-0.1692186312128858	0.05357791712347103	0.895454257639737	0.4052860219442685	-0.2620531835849333	-0.2642170406256837	-0.02567463876080451	0.05258351622766035	0.05258351622766052	-0.1744415478831758	0.1729048753951496	-0.04029163259338503	-0.01180307540668965	-0.2553969766927289	-0.1345031346396409	-0.07156301588736629	0.7666253771541569	-0.07612435439225088	0.1914538816840585	-0.3528067392914405	0.5627256284775073	0.5627256284774131	0.003185197196514321	0.003345260297756128	0.0577857430089841	-0.06494544130497587	0.1029762410303731	-0.07704231578072086	-0.04334795319666714	-0.2583348752867671	0.2489456635397972	-0.0162096500073091	-0.05624270167203429	39.31159077554491	-5.866288461881455	7.412501525343655	0.8945498045256839	-585.0259437645036	-82.69338772611692	-39.57538643296261	-3.198613318494457	-1.684555650584288	-0.9978956284262166	9.73370927750193	-0.9074606440404777	2.469743069298214	-4.281580904048457	7.199395360450235	7.199395360445085	0.04232196619944775	0.01768390375678154	0.7820792013371621	-0.7654731467188743	-1.435813249397109e-07	1.756569364514873e-07	2.311439280160606e-07	1.038463769256272e-07	-5.458983963410315e-07	4.890912071683951e-08	-3.889843348225507e-08
